<svg id="Layer_1" data-name="Layer 1" xmlns="http://www.w3.org/2000/svg" viewBox="0 0 40.9 40.89"><defs><style>.cls-1{fill:#010101;}.cls-2{fill:#fff;fill-rule:evenodd;}</style></defs><path class="cls-1" d="M22.5,2.05A20.45,20.45,0,1,0,43,22.5,20.46,20.46,0,0,0,22.5,2.05Z" transform="translate(-2.05 -2.05)"/><path class="cls-2" d="M17.4,32.35V18H12.62V32.35ZM15,16a2.49,2.49,0,1,0,0-5,2.5,2.5,0,0,0-2.71,2.49A2.47,2.47,0,0,0,15,16Z" transform="translate(-2.05 -2.05)"/><path class="cls-2" d="M20,32.35h4.78v-8A3.22,3.22,0,0,1,25,23.15a2.62,2.62,0,0,1,2.45-1.75c1.73,0,2.43,1.32,2.43,3.26v7.69h4.78V24.1c0-4.42-2.36-6.47-5.51-6.47a4.76,4.76,0,0,0-4.34,2.42h0V18H20c.06,1.34,0,14.38,0,14.38Z" transform="translate(-2.05 -2.05)"/></svg>