<svg id="Layer_1" data-name="Layer 1" xmlns="http://www.w3.org/2000/svg" xmlns:xlink="http://www.w3.org/1999/xlink" viewBox="0 0 40.9 40.89"><defs><style>.cls-1{fill:#010101;}.cls-2{fill:url(#linear-gradient);}</style><linearGradient id="linear-gradient" x1="12.63" y1="22.97" x2="31.74" y2="22.97" gradientUnits="userSpaceOnUse"><stop offset="0" stop-color="#eceae9"/><stop offset="1" stop-color="#f6f6f6"/></linearGradient></defs><path class="cls-1" d="M22.5,2.05A20.45,20.45,0,1,0,43,22.5,20.46,20.46,0,0,0,22.5,2.05Z" transform="translate(-2.05 -2.05)"/><path class="cls-2" d="M28.53,29.35H22.2A3.16,3.16,0,0,1,19,26.17V23h9.5a3.21,3.21,0,0,0,0-6.41H19v-3.2a3.07,3.07,0,0,0-.94-2.26,3,3,0,0,0-2.24-.94,3.17,3.17,0,0,0-2.29.92,3.11,3.11,0,0,0-.94,2.28V26.17a9.59,9.59,0,0,0,9.58,9.58h6.34a3.2,3.2,0,0,0,0-6.4Z" transform="translate(-2.05 -2.05)"/></svg>