<svg id="Layer_1" data-name="Layer 1" xmlns="http://www.w3.org/2000/svg" xmlns:xlink="http://www.w3.org/1999/xlink" viewBox="0 0 40.9 40.89"><defs><style>.cls-1{fill:#fff;}.cls-2{fill:none;}.cls-3{fill:#010101;}.cls-4{clip-path:url(#clip-path);}.cls-5{clip-path:url(#clip-path-2);}.cls-6{clip-path:url(#clip-path-3);}.cls-7{clip-path:url(#clip-path-4);}</style><clipPath id="clip-path" transform="translate(-2.05 -2.05)"><path class="cls-1" d="M22.5,20.5h-.38c-2.4,0-4.76,0-7.06.14a3.06,3.06,0,0,0-3.08,3c-.1,1.34-.15,2.67-.14,4s0,2.66.14,4a3.07,3.07,0,0,0,3.08,3c2.42.1,4.91.14,7.44.14s5,0,7.44-.14a3.07,3.07,0,0,0,3.08-3q.15-2,.15-4c0-1.33-.05-2.66-.15-4a3.06,3.06,0,0,0-3.08-3c-2.3-.1-4.66-.14-7.06-.14H22.5"/></clipPath><clipPath id="clip-path-2" transform="translate(-2.05 -2.05)"><polygon class="cls-2" points="18.5 9.28 17.6 13.05 17.51 13.05 16.56 9.28 15.1 9.28 16.83 14.97 16.83 18.71 18.29 18.71 18.29 14.79 19.98 9.28 18.5 9.28"/></clipPath><clipPath id="clip-path-3" transform="translate(-2.05 -2.05)"><path class="cls-2" d="M21.39,17.52a.6.6,0,0,1-.14-.44V13.29a.48.48,0,0,1,.15-.37.54.54,0,0,1,.38-.14.64.64,0,0,1,.42.14.48.48,0,0,1,.15.37v3.79a.62.62,0,0,1-.15.44.54.54,0,0,1-.42.16.47.47,0,0,1-.39-.16m-.95-5.47a1.66,1.66,0,0,0-.52,1.29V17a1.94,1.94,0,0,0,.51,1.41,1.78,1.78,0,0,0,1.35.53A1.75,1.75,0,0,0,23.67,17V13.38a1.76,1.76,0,0,0-.51-1.3,1.79,1.79,0,0,0-1.32-.51,2,2,0,0,0-1.4.48"/></clipPath><clipPath id="clip-path-4" transform="translate(-2.05 -2.05)"><path class="cls-1" d="M27.17,11.75V17a1.79,1.79,0,0,1-.4.38.66.66,0,0,1-.36.14.28.28,0,0,1-.26-.11.55.55,0,0,1-.08-.35V11.75h-1.3v5.82a1.59,1.59,0,0,0,.23.93.78.78,0,0,0,.68.31,1.49,1.49,0,0,0,.75-.22,3.11,3.11,0,0,0,.74-.65v.77h1.29v-7Z"/></clipPath></defs><path class="cls-3" d="M22.5,2.05A20.45,20.45,0,1,0,43,22.5,20.46,20.46,0,0,0,22.5,2.05Z" transform="translate(-2.05 -2.05)"/><path class="cls-1" d="M22.5,20.5h-.38c-2.4,0-4.76,0-7.06.14a3.06,3.06,0,0,0-3.08,3c-.1,1.34-.15,2.67-.14,4s0,2.66.14,4a3.07,3.07,0,0,0,3.08,3c2.42.1,4.91.14,7.44.14s5,0,7.44-.14a3.07,3.07,0,0,0,3.08-3q.15-2,.15-4c0-1.33-.05-2.66-.15-4a3.06,3.06,0,0,0-3.08-3c-2.3-.1-4.66-.14-7.06-.14H22.5" transform="translate(-2.05 -2.05)"/><g class="cls-4"><rect class="cls-1" x="9.78" y="18.44" width="21.34" height="14.36"/></g><g class="cls-5"><rect class="cls-1" x="13.04" y="7.22" width="4.89" height="9.43"/></g><g class="cls-6"><rect class="cls-1" x="17.86" y="9.52" width="3.76" height="7.31"/></g><path class="cls-1" d="M27.17,11.75V17a1.79,1.79,0,0,1-.4.38.66.66,0,0,1-.36.14.28.28,0,0,1-.26-.11.55.55,0,0,1-.08-.35V11.75h-1.3v5.82a1.59,1.59,0,0,0,.23.93.78.78,0,0,0,.68.31,1.49,1.49,0,0,0,.75-.22,3.11,3.11,0,0,0,.74-.65v.77h1.29v-7Z" transform="translate(-2.05 -2.05)"/><g class="cls-7"><rect class="cls-1" x="22.72" y="9.7" width="3.69" height="7.06"/></g><path class="cls-3" d="M18,22.82H13.49v1.37H15v8.07h1.45V24.19H18Zm2.38,7.76a1.59,1.59,0,0,1-.4.38.72.72,0,0,1-.36.14.28.28,0,0,1-.26-.11.56.56,0,0,1-.08-.36V25.3h-1.3v5.82a1.59,1.59,0,0,0,.23.93.78.78,0,0,0,.68.31,1.49,1.49,0,0,0,.75-.22,2.74,2.74,0,0,0,.74-.65v.77h1.3v-7h-1.3Zm5-5.37a1.24,1.24,0,0,0-.6.17,2,2,0,0,0-.55.48v-3H22.9v9.44h1.31v-.54a1.75,1.75,0,0,0,.55.48,1.48,1.48,0,0,0,.68.15,1,1,0,0,0,.87-.4,1.77,1.77,0,0,0,.31-1.13V27a2.17,2.17,0,0,0-.33-1.3,1.07,1.07,0,0,0-.93-.45m-.07,5.42a.77.77,0,0,1-.12.48.39.39,0,0,1-.34.14.68.68,0,0,1-.32-.07,1,1,0,0,1-.3-.25V26.6a.71.71,0,0,1,.26-.21.55.55,0,0,1,.28-.07.48.48,0,0,1,.4.18.89.89,0,0,1,.14.54Zm6.11-1.69V27.17a2.23,2.23,0,0,0-.47-1.52,1.77,1.77,0,0,0-1.37-.53,1.89,1.89,0,0,0-1.42.57,2.09,2.09,0,0,0-.54,1.48v3.12a2.34,2.34,0,0,0,.49,1.58,1.71,1.71,0,0,0,1.37.58,1.87,1.87,0,0,0,1.46-.54,2.38,2.38,0,0,0,.48-1.62v-.52H30.07v.49a1.5,1.5,0,0,1-.13.79.51.51,0,0,1-.45.18.49.49,0,0,1-.44-.21,1.69,1.69,0,0,1-.12-.76V28.94Zm-2.47-1.78a1.14,1.14,0,0,1,.13-.63.52.52,0,0,1,.44-.19.49.49,0,0,1,.43.19,1.13,1.13,0,0,1,.14.63v.7H28.93Z" transform="translate(-2.05 -2.05)"/></svg>